<?xml version="1.0" standalone="no"?><!DOCTYPE svg PUBLIC "-//W3C//DTD SVG 1.1//EN" "http://www.w3.org/Graphics/SVG/1.1/DTD/svg11.dtd"><svg t="1628734407506" class="icon" viewBox="0 0 1024 1024" version="1.1" xmlns="http://www.w3.org/2000/svg" p-id="3715" xmlns:xlink="http://www.w3.org/1999/xlink" width="200" height="200"><defs><style type="text/css"></style></defs><path d="M853.333333 757.333333a32 32 0 0 1 4.352 63.701334L853.333333 821.333333H213.333333a32 32 0 0 1-4.352-63.701333L213.333333 757.333333h640z m0-256a32 32 0 0 1 4.352 63.701334L853.333333 565.333333H213.333333a32 32 0 0 1-4.352-63.701333L213.333333 501.333333h640z m0-256a32 32 0 0 1 4.352 63.701334L853.333333 309.333333H213.333333a32 32 0 0 1-4.352-63.701333L213.333333 245.333333h640z" fill="#ffffff" p-id="3716"></path></svg>